<svg xmlns="http://www.w3.org/2000/svg" viewBox="0 0 1060 380"><g transform="translate(27.60,235.00) scale(0.2000,-0.2000)"><path d="M693 351Q693 248 647.5 168.0Q602 88 518.5 44.0Q435 0 325 0H62V702H325Q436 702 519.0 658.0Q602 614 647.5 534.5Q693 455 693 351ZM519 351Q519 448 465.0 502.0Q411 556 314 556H233V148H314Q411 148 465.0 201.0Q519 254 519 351ZM1001 566Q1060 566 1104.5 542.0Q1149 518 1173 479V558H1344V0H1173V79Q1148 40 1103.5 16.0Q1059 -8 1000 -8Q932 -8 876.0 27.5Q820 63 787.5 128.5Q755 194 755 280Q755 366 787.5 431.0Q820 496 876.0 531.0Q932 566 1001 566ZM1051 417Q1000 417 964.5 380.5Q929 344 929 280Q929 216 964.5 178.5Q1000 141 1051 141Q1102 141 1137.5 178.0Q1173 215 1173 279Q1173 343 1137.5 380.0Q1102 417 1051 417ZM1991 238H1604Q1608 186 1637.5 158.5Q1667 131 1710 131Q1774 131 1799 185H1981Q1967 130 1930.5 86.0Q1894 42 1839.0 17.0Q1784 -8 1716 -8Q1634 -8 1570.0 27.0Q1506 62 1470.0 127.0Q1434 192 1434 279Q1434 366 1469.5 431.0Q1505 496 1569.0 531.0Q1633 566 1716 566Q1797 566 1860.0 532.0Q1923 498 1958.5 435.0Q1994 372 1994 288Q1994 264 1991 238ZM1819 333Q1819 377 1789.0 403.0Q1759 429 1714 429Q1671 429 1641.5 404.0Q1612 379 1605 333ZM2427 566Q2496 566 2552.0 531.0Q2608 496 2640.5 431.0Q2673 366 2673 280Q2673 194 2640.5 128.5Q2608 63 2552.0 27.5Q2496 -8 2427 -8Q2368 -8 2324.0 15.5Q2280 39 2255 78V0H2084V740H2255V479Q2279 518 2324.0 542.0Q2369 566 2427 566ZM2376 417Q2325 417 2289.5 380.0Q2254 343 2254 279Q2254 215 2289.5 178.0Q2325 141 2376 141Q2427 141 2463.0 178.5Q2499 216 2499 280Q2499 344 2463.5 380.5Q2428 417 2376 417ZM2975 566Q3034 566 3078.5 542.0Q3123 518 3147 479V558H3318V0H3147V79Q3122 40 3077.5 16.0Q3033 -8 2974 -8Q2906 -8 2850.0 27.5Q2794 63 2761.5 128.5Q2729 194 2729 280Q2729 366 2761.5 431.0Q2794 496 2850.0 531.0Q2906 566 2975 566ZM3025 417Q2974 417 2938.5 380.5Q2903 344 2903 280Q2903 216 2938.5 178.5Q2974 141 3025 141Q3076 141 3111.5 178.0Q3147 215 3147 279Q3147 343 3111.5 380.0Q3076 417 3025 417ZM3783 0 3613 234V0H3442V740H3613V331L3782 558H3993L3761 278L3995 0Z" fill="#e7edf6"/></g><polygon points="851,90 893,90 879,200 853,200" fill="#EE3B26"/><circle cx="864" cy="228" r="21" fill="#EE3B26"/><polygon points="868,84 858,30 882,40" fill="#EE3B26"/><polygon points="858,82 812,54 842,46" fill="#EE3B26"/><polygon points="886,82 928,52 922,72" fill="#EE3B26"/><polygon points="892,90 946,92 924,104" fill="#EE3B26"/><polygon points="862,80 848,34 856,40" fill="#EE3B26"/><rect x="365" y="258" width="150" height="74" rx="16" fill="#EE3B26"/><g transform="translate(388.90,315.40) scale(0.0545,-0.0545)"><path d="M485 830V-52H634V362H693V-94H846V844H693V491H634V830ZM58 738V106H126C235 106 337 109 452 130L440 260C361 247 289 241 217 239V609H403V738ZM1064 246V119H1538V-95H1699V246ZM976 785V322H1436V785H1276V673H1136V785ZM1136 551H1276V447H1136ZM1538 843V283H1699V493H1816V624H1699V843Z" fill="#ffffff"/></g><line x1="205" y1="295" x2="358" y2="295" stroke="#EE3B26" stroke-width="3"/><line x1="522" y1="295" x2="675" y2="295" stroke="#EE3B26" stroke-width="3"/><rect x="232" y="284" width="22" height="22" fill="none" stroke="#EE3B26" stroke-width="3"/><rect x="240" y="292" width="14" height="14" fill="none" stroke="#EE3B26" stroke-width="3"/><rect x="626" y="284" width="22" height="22" fill="none" stroke="#EE3B26" stroke-width="3"/><rect x="626" y="292" width="14" height="14" fill="none" stroke="#EE3B26" stroke-width="3"/></svg>
