<?xml version="1.0" encoding="UTF-8"?>
<svg width="860" height="860" viewBox="0 0 860 860" fill="none" xmlns="http://www.w3.org/2000/svg" role="img" aria-labelledby="title desc">
  <title id="title">Daebak logo</title>
  <desc id="desc">Vector-traced Daebak logo with Korean 대박 lettering, red celebration marks, and English Daebak wordmark.</desc>
  <rect width="860" height="860" fill="#FFFFFF"/>
  <g id="daebak-logo" fill-rule="evenodd" clip-rule="evenodd">
    <path id="black" fill="#17120E" d="M552 598 L549 602 L543 616 L543 620 L542 621 L542 639 L543 640 L543 644 L547 655 L551 661 L557 667 L563 671 L571 674 L583 675 L584 674 L589 674 L601 668 L606 662 L608 663 L608 673 L633 673 L633 587 L608 587 L608 597 L606 598 L596 589 L587 586 L573 586 L560 591 Z
M583 608 L592 608 L600 612 L605 618 L607 622 L607 627 L608 628 L607 638 L604 644 L596 651 L590 652 L589 653 L582 652 L576 649 L570 642 L568 636 L568 624 L570 618 L578 610 Z
M365 588 L358 591 L352 595 L347 600 L341 610 L339 616 L339 620 L338 621 L338 640 L339 641 L339 644 L341 650 L346 659 L353 666 L359 670 L361 670 L370 674 L375 674 L376 675 L386 675 L387 674 L396 673 L409 666 L416 659 L421 650 L422 646 L395 646 L388 653 L385 654 L376 654 L371 652 L366 647 L363 640 L363 637 L364 636 L424 636 L424 620 L423 619 L422 612 L416 601 L409 594 L400 589 L394 587 L391 587 L390 586 L373 586 L372 587 Z
M363 620 L366 613 L370 609 L376 606 L386 606 L389 607 L395 612 L398 617 L398 622 L397 623 L365 623 Z
M240 599 L236 605 L232 615 L232 619 L231 620 L231 640 L232 641 L232 645 L234 651 L237 657 L247 668 L254 672 L260 674 L272 675 L273 674 L278 674 L285 671 L295 663 L296 664 L296 673 L322 673 L322 587 L296 587 L296 596 L294 597 L288 591 L282 588 L276 587 L275 586 L262 586 L261 587 L258 587 L252 589 L246 593 Z
M272 608 L281 608 L286 610 L291 614 L294 618 L294 620 L296 623 L296 637 L294 642 L288 649 L278 653 L270 652 L265 649 L259 642 L257 637 L257 632 L256 631 L257 628 L257 622 L261 615 L267 610 Z
M121 564 L121 673 L173 673 L174 672 L178 672 L190 668 L200 662 L211 650 L216 640 L217 634 L218 633 L218 629 L219 628 L219 610 L218 609 L218 604 L216 598 L213 593 L213 591 L209 585 L196 573 L180 566 L166 565 L165 564 Z
M148 586 L168 586 L177 589 L186 596 L191 604 L192 610 L193 611 L193 626 L192 627 L192 630 L187 640 L181 646 L176 649 L170 650 L169 651 L161 651 L160 652 L148 652 L147 651 L147 587 Z
M654 558 L654 673 L680 673 L680 640 L681 639 L685 642 L687 646 L693 653 L695 657 L707 673 L739 673 L704 632 L704 629 L739 587 L707 587 L683 620 L681 621 L680 620 L680 558 Z
M440 558 L440 673 L465 673 L465 663 L467 662 L471 667 L475 670 L484 674 L495 675 L496 674 L502 674 L512 670 L515 668 L525 657 L529 648 L529 645 L531 640 L531 620 L526 605 L522 599 L516 593 L507 588 L501 587 L500 586 L487 586 L486 587 L480 588 L474 591 L468 597 L468 598 L466 599 L465 598 L465 558 Z
M480 608 L490 608 L495 610 L500 614 L503 618 L505 623 L505 637 L503 642 L497 649 L494 651 L488 652 L487 653 L480 652 L474 649 L469 644 L466 638 L466 633 L465 632 L466 622 L468 618 L473 612 Z
M449 413 L449 443 L567 443 L568 444 L568 496 L606 496 L606 413 Z
M196 289 L196 446 L248 446 L249 445 L260 445 L261 444 L280 443 L281 442 L287 442 L288 441 L292 441 L294 440 L293 438 L293 428 L292 427 L291 409 L288 410 L282 410 L281 411 L275 411 L274 412 L254 413 L253 414 L236 414 L235 413 L235 321 L236 320 L281 320 L281 289 Z
M427 277 L427 392 L541 392 L541 277 L502 277 L502 304 L500 306 L467 306 L465 304 L465 277 Z
M465 336 L467 334 L500 334 L502 336 L502 361 L501 362 L466 362 L465 361 Z
M568 263 L568 402 L606 402 L606 351 L608 349 L636 349 L636 318 L608 318 L606 316 L606 263 Z
M304 266 L304 486 L339 486 L339 383 L340 382 L355 382 L356 383 L356 496 L393 496 L393 263 L356 263 L356 350 L355 351 L340 351 L339 350 L339 266 Z"/>
    <path id="red" fill="#F13624" d="M749 630 L749 633 L750 634 L756 635 L757 636 L762 636 L763 637 L778 636 L779 635 L783 637 L789 637 L792 635 L794 636 L810 637 L811 636 L819 635 L823 633 L823 630 L821 628 L812 631 L797 631 L792 629 L792 627 L795 622 L795 619 L796 618 L796 610 L792 600 L787 594 L785 594 L781 598 L776 609 L776 619 L780 627 L779 630 L776 630 L775 631 L761 631 L752 628 Z
M785 604 L788 605 L790 610 L790 618 L787 624 L784 623 L782 618 L782 609 Z
M38 630 L38 633 L42 635 L50 636 L51 637 L67 636 L68 635 L72 637 L78 637 L81 635 L83 636 L99 637 L100 636 L108 635 L112 633 L112 630 L110 628 L101 631 L86 631 L81 629 L81 627 L84 622 L84 619 L85 618 L85 609 L80 598 L76 594 L74 594 L71 597 L65 609 L65 618 L66 619 L66 622 L69 627 L68 630 L65 630 L64 631 L49 631 L41 628 Z
M74 604 L76 604 L79 609 L79 618 L76 624 L73 623 L71 618 L71 610 Z
M723 370 L723 372 L727 372 L727 370 Z
M706 370 L706 372 L710 372 L710 370 Z
M723 356 L723 359 L727 359 L727 356 Z
M706 356 L706 359 L710 359 L710 356 Z
M709 330 L709 333 L724 333 L724 330 Z
M656 299 L652 303 L649 310 L649 382 L653 390 L661 395 L736 395 L742 392 L745 389 L748 382 L748 310 L745 303 L741 299 L737 297 L660 297 Z
M693 347 L695 345 L739 345 L740 346 L740 385 L738 387 L729 387 L727 384 L706 384 L704 387 L695 387 L693 385 Z
M685 339 L692 339 L693 340 L693 370 L692 371 L685 371 L684 370 L684 340 Z
M661 339 L669 339 L670 340 L670 360 L669 361 L669 368 L668 369 L667 376 L665 379 L657 373 L658 367 L659 366 L659 361 L660 360 L660 340 Z
M660 324 L692 324 L694 326 L694 336 L693 337 L683 337 L683 385 L681 387 L672 387 L671 386 L671 337 L660 337 L659 336 L659 325 Z
M697 320 L698 319 L736 319 L737 320 L737 343 L736 344 L698 344 L697 343 Z
M661 308 L662 307 L692 307 L693 308 L693 319 L692 320 L662 320 L661 319 Z
M693 307 L695 305 L739 305 L740 306 L740 317 L739 318 L695 318 L693 316 Z
M574 218 L565 221 L562 223 L540 230 L520 250 Z
M287 218 L341 250 L321 230 L313 228 L310 226 L299 223 L296 221 Z
M541 139 L536 142 L534 142 L529 145 L527 145 L503 156 L501 162 L501 165 L500 166 L500 169 L499 170 L499 173 L498 174 L498 177 L497 178 L497 182 L496 183 L493 198 L492 199 L492 203 L491 204 L491 207 L490 208 L490 211 L489 212 L489 215 L486 224 L523 167 L525 168 L524 170 L525 173 L529 178 L535 179 L540 177 L542 174 L543 168 L542 165 L538 161 L535 161 L534 160 L529 162 L527 161 Z
M320 139 L334 160 L333 162 L329 162 L324 166 L322 171 L322 174 L324 179 L330 183 L336 183 L340 181 L342 178 L344 177 L347 180 L348 183 L375 224 L374 223 L374 220 L373 219 L373 216 L372 215 L372 212 L369 203 L369 199 L368 198 L368 195 L367 194 L367 191 L366 190 L366 187 L363 178 L363 174 L362 173 L362 170 L361 169 L361 166 L360 165 L360 162 L358 156 L334 145 L332 145 L327 142 L325 142 Z
M581 87 L580 88 L576 88 L570 90 L563 95 L556 102 L552 108 L549 116 L549 126 L551 132 L557 141 L566 149 L576 154 L589 154 L599 149 L604 145 L611 137 L616 125 L616 117 L613 108 L603 96 L598 92 L592 89 Z
M581 94 L588 95 L594 98 L605 109 L609 118 L609 124 L605 133 L595 143 L587 147 L577 147 L570 143 L560 133 L556 125 L556 117 L557 114 L563 105 L571 98 Z
M430 63 L430 68 L428 74 L428 79 L427 80 L427 85 L426 86 L426 91 L425 92 L424 100 L422 102 L410 102 L410 104 L411 105 L412 115 L413 116 L413 120 L415 126 L415 131 L416 132 L416 136 L418 142 L418 147 L419 148 L419 152 L421 158 L421 163 L422 164 L422 168 L424 174 L424 179 L425 180 L425 184 L427 190 L427 195 L428 196 L428 200 L430 206 L430 211 L431 211 L431 206 L432 205 L432 201 L434 195 L434 190 L435 189 L435 185 L437 179 L437 174 L438 173 L438 169 L440 163 L440 158 L441 157 L441 153 L442 152 L443 142 L444 141 L444 137 L445 136 L447 123 L451 121 L456 121 L462 119 L467 119 L468 118 L473 118 L474 117 L479 117 L480 116 L484 116 L485 115 L490 115 L491 114 L496 114 L497 113 L504 112 L488 110 L487 109 L482 109 L481 108 L465 106 L464 105 L459 105 L458 104 L454 104 L451 102 L446 102 L445 101 L439 102 L437 100 L437 97 L436 96 L434 80 L433 79 L433 74 L431 68 L431 63 Z"/>
  </g>
</svg>
